<?xml version="1.0" standalone="no"?>
<!DOCTYPE svg PUBLIC "-//W3C//DTD SVG 20010904//EN"
 "http://www.w3.org/TR/2001/REC-SVG-20010904/DTD/svg10.dtd">
<svg version="1.0" xmlns="http://www.w3.org/2000/svg"
 width="700.000000pt" height="700.000000pt" viewBox="0 0 700.000000 700.000000"
 preserveAspectRatio="xMidYMid meet">
<metadata>
Created by potrace 1.14, written by Peter Selinger 2001-2017
</metadata>
<g transform="translate(0.000000,700.000000) scale(0.100000,-0.100000)"
fill="#000000" stroke="none">
<path d="M0 3500 l0 -3500 3500 0 3500 0 0 3500 0 3500 -3500 0 -3500 0 0
-3500z m1889 2315 c98 -23 197 -80 271 -155 228 -229 228 -591 0 -820 -225
-227 -593 -227 -820 0 -228 228 -228 592 0 820 73 73 175 132 266 154 78 19
204 19 283 1z m1750 0 c152 -36 300 -151 373 -291 205 -390 -74 -854 -512
-854 -322 0 -580 258 -580 580 0 264 185 503 436 564 78 19 204 19 283 1z
m1750 0 c152 -36 300 -151 373 -291 205 -390 -74 -854 -512 -854 -158 0 -299
59 -410 170 -228 228 -228 592 0 820 73 73 175 132 266 154 78 19 204 19 283
1z m-3500 -1750 c152 -36 300 -151 373 -291 205 -390 -74 -854 -512 -854 -322
0 -580 258 -580 580 0 264 185 503 436 564 78 19 204 19 283 1z m1750 0 c98
-23 197 -80 271 -155 228 -229 228 -591 0 -820 -225 -227 -593 -227 -820 0
-228 228 -228 592 0 820 73 73 175 132 266 154 78 19 204 19 283 1z m1750 0
c152 -36 300 -151 373 -291 205 -390 -74 -854 -512 -854 -322 0 -580 258 -580
580 0 264 185 503 436 564 78 19 204 19 283 1z m-3500 -1750 c152 -36 300
-151 373 -291 205 -390 -74 -854 -512 -854 -158 0 -299 59 -410 170 -228 228
-228 592 0 820 73 73 175 132 266 154 78 19 204 19 283 1z m1750 0 c152 -36
300 -151 373 -291 205 -390 -74 -854 -512 -854 -322 0 -580 258 -580 580 0
264 185 503 436 564 78 19 204 19 283 1z m1750 0 c152 -36 300 -151 373 -291
205 -390 -74 -854 -512 -854 -158 0 -299 59 -410 170 -228 228 -228 592 0 820
73 73 175 132 266 154 78 19 204 19 283 1z"/>
<path d="M1639 5672 c-213 -56 -358 -277 -320 -490 42 -238 271 -404 499 -363
88 16 160 51 224 111 183 167 194 431 27 615 -61 66 -134 109 -220 130 -81 19
-128 18 -210 -3z"/>
<path d="M5139 5672 c-213 -56 -358 -277 -320 -490 42 -238 271 -404 499 -363
88 16 160 51 224 111 183 167 194 431 27 615 -61 66 -134 109 -220 130 -81 19
-128 18 -210 -3z"/>
<path d="M3389 3922 c-213 -56 -358 -277 -320 -490 42 -238 271 -404 499 -363
88 16 160 51 224 111 183 167 194 431 27 615 -61 66 -134 109 -220 130 -81 19
-128 18 -210 -3z"/>
<path d="M1639 2172 c-213 -56 -358 -277 -320 -490 42 -238 271 -404 499 -363
88 16 160 51 224 111 183 167 194 431 27 615 -61 66 -134 109 -220 130 -81 19
-128 18 -210 -3z"/>
<path d="M5139 2172 c-213 -56 -358 -277 -320 -490 42 -238 271 -404 499 -363
88 16 160 51 224 111 183 167 194 431 27 615 -61 66 -134 109 -220 130 -81 19
-128 18 -210 -3z"/>
</g>
</svg>
